<?xml version="1.0" encoding="utf-8"?>
<!-- Generator: Adobe Illustrator 18.0.0, SVG Export Plug-In . SVG Version: 6.00 Build 0)  -->
<!DOCTYPE svg PUBLIC "-//W3C//DTD SVG 1.1//EN" "http://www.w3.org/Graphics/SVG/1.1/DTD/svg11.dtd">
<svg version="1.1" id="Layer_1" xmlns="http://www.w3.org/2000/svg" xmlns:xlink="http://www.w3.org/1999/xlink" x="0px" y="0px"
	 viewBox="0 0 500 500" enable-background="new 0 0 500 500" xml:space="preserve">
<rect x="0" y="0.1" fill="#0E1136" width="500" height="500"/>
<g>
	<g>
		<g>
			<path fill="#FFFFFF" d="M235.9,251.4c-16.2-13-21.9-32.9-12.7-44.5c1-1.2,2.1-2.3,3.3-3.2c-7.3,0.7-13.7,3.8-18,9.2
				c-10.5,13.6-4,36.8,14.6,52c18.6,15.1,42.2,16.4,52.8,2.8c2.8-3.6,4.4-7.9,4.9-12.5C271,265.3,251.4,263.8,235.9,251.4z"/>
			<path fill="#FFFFFF" d="M467.5,105.9c-50.2-64.7-153.4-70-250.7-20.2c-48-7.8-92.3,4.6-118.1,37.8
				c-13.8,17.7-20.7,39.3-21.4,62.6c4.2-9.8,9.6-19.2,16.4-27.8c20.2-26,49-41.7,80.8-47c-7.4,5.1-14.6,10.6-21.8,16.4
				C40.3,219-0.9,357.3,60.7,436.5c44,56.6,128.5,67.8,214.2,36.2c-70.6,17.4-137.8,3.1-175.3-44.4C40.9,354,77.2,226.7,180.5,144.1
				c15.6-12.4,31.8-23.1,48.2-32.1c29.3,5.3,58.7,18.5,84.7,39.8c72.4,59.1,91.5,158,42.5,220.8c-4.9,6.2-10.2,11.9-16,16.9
				c18.1-6.5,33.8-17.3,45.7-32.5c44.9-57.8,17.1-156.9-62.1-221.3c-20.5-16.7-42.5-29.4-64.5-38c84.1-34.6,170.3-24.9,214.8,31.4
				c8.4,10.6,14.8,22.4,19.4,34.9C489.1,142.6,480.7,122.9,467.5,105.9z"/>
		</g>
	</g>
	<path fill="#FFFFFF" d="M435.9,267.6c3.7,36.2-4.2,70.6-25.3,97.6c-53,68.1-168.7,64.1-258.5-9S32.4,168.7,85.4,100.6
		C109,70.1,145.2,54.1,186,52.2C125.1,44.7,69.3,61.5,36,103.5C-24,179,11.7,307.2,115.9,390S353,478.6,413,403.1
		C442,366.6,448.6,317.7,435.9,267.6z"/>
	<path fill="#FFFFFF" d="M449.1,10.1c-15.2,0-27.6,12.3-27.6,27.6c0,3.4,0.6,6.6,1.8,9.7L244.2,225.7c-0.2,0.2-0.4,0.4-0.6,0.6
		l-0.2,0.2l0,0c-2.1,2.4-3.4,5.5-3.4,9c0,7.4,5.7,13.3,12.7,13.3c3.6,0,6.8-1.6,9.1-4.1l0,0L439.4,63.5c3,1.1,6.2,1.8,9.6,1.8
		c15.2,0,27.6-12.3,27.6-27.6C476.7,22.4,464.3,10.1,449.1,10.1z"/>
</g>
</svg>
