<?xml version="1.0" encoding="utf-8"?>
<!-- Generator: Adobe Illustrator 18.0.0, SVG Export Plug-In . SVG Version: 6.00 Build 0)  -->
<!DOCTYPE svg PUBLIC "-//W3C//DTD SVG 1.1//EN" "http://www.w3.org/Graphics/SVG/1.1/DTD/svg11.dtd">
<svg version="1.1" id="Layer_1" xmlns="http://www.w3.org/2000/svg" xmlns:xlink="http://www.w3.org/1999/xlink" x="0px" y="0px"
	 viewBox="100 120 825 265" enable-background="new 100 120 825 265" xml:space="preserve">
<g>
	<rect x="100" y="120" fill="#0D1036" width="825" height="265"/>
	<g>
		<g>
			<path fill="#FFFFFF" d="M217,225.8c-3.8,0.4-7.1,2-9.4,4.8c-5.5,7.1-2.1,19.2,7.6,27.1c9.7,7.9,22,8.5,27.5,1.5
				c1.5-1.9,2.3-4.1,2.5-6.5c-5,5.3-15.2,4.5-23.3-1.9c-8.4-6.8-11.4-17.1-6.6-23.2C215.8,226.9,216.4,226.3,217,225.8z"/>
			<path fill="#FFFFFF" d="M342.6,175c-5.4-7-12.1-12.7-19.6-17l5-5.1c1.6,0.6,3.3,0.9,5,0.9c7.9,0,14.4-6.4,14.4-14.4
				c0-7.9-6.4-14.4-14.4-14.4s-14.4,6.4-14.4,14.4c0,1.8,0.3,3.5,0.9,5l-8.2,8.1c-27.8-10.3-64.3-6.1-99.4,11.9
				c-25-4-48.1,2.4-61.5,19.7c-7.2,9.2-10.8,20.5-11.1,32.6c2.2-5.1,5-10,8.5-14.5c10.5-13.5,25.5-21.7,42.1-24.5
				c-3.8,2.7-7.6,5.5-11.3,8.6c-19.3,15.7-34.5,34-45.2,52.9c-6.8-24.6-4-49,10.1-67.1c12.3-15.8,31.2-24.2,52.4-25.2
				c-31.7-3.9-60.8,4.8-78.2,26.7c-21.3,26.8-19.4,66.3,1,102.3c-6.3,26.6-2.9,52.1,11.8,71.1c22.9,29.5,66.9,35.3,111.6,18.9
				c-36.8,9.1-71.8,1.6-91.3-23.1c-9.4-11.9-14.1-26.4-14.6-42c6.8,7.8,14.5,15.2,23,22.1C213.7,366,283,369,314.2,329.7
				c15.1-19,18.5-44.5,11.9-70.6c1.9,18.8-2.2,36.8-13.2,50.8c-27.6,35.5-87.9,33.4-134.6-4.7c-15.3-12.4-27.2-27.2-35.4-42.6
				c8.7-24.2,25.9-48.4,50.2-67.9c8.1-6.5,16.5-12.1,25.1-16.7c15.2,2.8,30.6,9.6,44.1,20.7c0.5,0.4,0.9,0.8,1.4,1.2l-37.5,37.3
				c-0.1,0.1-0.2,0.2-0.3,0.3l-0.1,0.1l0,0c-1.1,1.2-1.8,2.9-1.8,4.7c0,3.8,3,6.9,6.6,6.9c1.9,0,3.6-0.8,4.8-2.1l0,0l37.5-38.3
				c28.7,31.1,34.3,75.5,11.4,104.9c-2.5,3.2-5.3,6.2-8.3,8.8c9.4-3.4,17.6-9,23.8-16.9c20.9-26.9,11.6-70.8-20-103.8l35.7-36.4
				c12,4.4,22.4,11.6,30.2,21.5c4.4,5.5,7.7,11.7,10.1,18.2C353.8,194,349.5,183.8,342.6,175z M270.7,193.1c-1-0.9-2.1-1.8-3.2-2.7
				c-10.7-8.7-22.1-15.3-33.6-19.8c23.6-9.7,47.5-12.7,68.2-8.8L270.7,193.1z"/>
		</g>
		<g>
			<path fill="#FFFFFF" d="M432.9,168.7H406v-3.2h57.3v3.2h-26.9v70.1h-3.5V168.7z"/>
			<path fill="#FFFFFF" d="M546.2,165.4v73.4h-3.6v-35.6h-51.5v35.6h-3.6v-73.4h3.6v34.5h51.5v-34.5H546.2z"/>
			<path fill="#FFFFFF" d="M594.6,234.4c-5.8-3.2-10.3-7.7-13.6-13.3c-3.3-5.7-4.9-12-4.9-19c0-7,1.6-13.3,4.9-19
				c3.3-5.7,7.8-10.1,13.6-13.3c5.8-3.2,12.2-4.8,19.3-4.8s13.6,1.6,19.4,4.8c5.8,3.2,10.3,7.7,13.6,13.3c3.3,5.7,4.9,12,4.9,19
				c0,7-1.6,13.3-4.9,19c-3.3,5.7-7.8,10.1-13.6,13.3c-5.8,3.2-12.3,4.8-19.4,4.8S600.4,237.6,594.6,234.4z M631.4,231.6
				c5.2-2.9,9.4-7,12.4-12.2c3-5.2,4.5-10.9,4.5-17.3c0-6.4-1.5-12.1-4.5-17.3c-3-5.2-7.1-9.2-12.4-12.2c-5.2-2.9-11.1-4.4-17.5-4.4
				c-6.4,0-12.2,1.5-17.5,4.4c-5.2,2.9-9.3,7-12.3,12.2c-3,5.2-4.5,10.9-4.5,17.3c0,6.4,1.5,12.1,4.5,17.3c3,5.2,7.1,9.2,12.3,12.2
				c5.2,2.9,11,4.4,17.5,4.4C620.4,236,626.2,234.5,631.4,231.6z"/>
			<path fill="#FFFFFF" d="M751.7,238.8l-0.1-66.1l-32.2,56h-1.9l-32.3-55.8v65.9h-3.5v-73.4h2.9l33.8,58.7l33.6-58.7h2.9l0.1,73.4
				H751.7z"/>
			<path fill="#FFFFFF" d="M837.4,217.3h-43.9l-9.9,21.5h-3.9l34-73.4h3.5l34,73.4h-3.9L837.4,217.3z M836.1,214.3l-20.5-44.8
				l-20.7,44.8H836.1z"/>
			<path fill="#FFFFFF" d="M879.3,236.4c-4.8-1.9-8.5-4.3-11.1-7.3l1.9-2.5c2.4,2.8,5.9,5.1,10.2,6.9c4.4,1.8,9,2.7,14,2.7
				c7.3,0,12.9-1.4,16.6-4.4c3.7-2.9,5.6-6.6,5.6-11.2c0-3.5-1-6.3-2.9-8.4c-2-2.1-4.4-3.7-7.2-4.8c-2.9-1.1-6.8-2.2-11.7-3.4
				c-5.3-1.3-9.6-2.6-12.8-3.9c-3.2-1.3-5.9-3.2-8.2-5.8c-2.2-2.6-3.4-6-3.4-10.4c0-3.4,0.9-6.6,2.7-9.4c1.8-2.9,4.6-5.2,8.3-6.9
				c3.7-1.7,8.4-2.6,14-2.6c4,0,7.9,0.6,11.8,1.8c3.9,1.2,7.2,2.8,9.9,4.9l-1.6,2.8c-2.9-2.1-6.1-3.7-9.6-4.8
				c-3.5-1.1-7-1.6-10.4-1.6c-7.1,0-12.5,1.5-16.2,4.5c-3.7,3-5.5,6.7-5.5,11.3c0,3.6,1,6.4,3,8.5c2,2.1,4.4,3.8,7.3,4.9
				c2.9,1.1,6.8,2.3,11.7,3.5c5.3,1.3,9.6,2.6,12.8,3.8c3.2,1.2,5.9,3.1,8.1,5.7c2.2,2.6,3.3,6,3.3,10.2c0,3.4-0.9,6.6-2.8,9.4
				c-1.9,2.9-4.7,5.1-8.5,6.8c-3.8,1.7-8.6,2.5-14.3,2.5C889.1,239.2,884.1,238.3,879.3,236.4z"/>
			<path fill="#FFFFFF" d="M430,330.2c-5.8-3.2-10.3-7.7-13.6-13.3c-3.3-5.7-4.9-12-4.9-19c0-7,1.6-13.3,4.9-19
				c3.3-5.7,7.8-10.1,13.6-13.3c5.8-3.2,12.2-4.8,19.3-4.8c5,0,9.7,0.8,14.2,2.5c4.4,1.6,8.2,4.1,11.3,7.3l-2.2,2.3
				c-6.1-5.9-13.8-8.8-23.2-8.8c-6.4,0-12.3,1.5-17.5,4.5c-5.2,3-9.4,7-12.4,12.2c-3,5.2-4.5,10.9-4.5,17.2s1.5,12,4.5,17.2
				c3,5.2,7.1,9.2,12.4,12.2c5.2,3,11.1,4.5,17.5,4.5c9.3,0,17-3,23.2-8.9l2.2,2.3c-3.1,3.2-6.9,5.7-11.3,7.3
				c-4.4,1.7-9.1,2.5-14.2,2.5C442.2,335,435.8,333.4,430,330.2z"/>
			<path fill="#FFFFFF" d="M513.7,330.2c-5.8-3.2-10.3-7.7-13.6-13.3c-3.3-5.7-4.9-12-4.9-19c0-7,1.6-13.3,4.9-19
				c3.3-5.7,7.8-10.1,13.6-13.3c5.8-3.2,12.2-4.8,19.3-4.8c7.1,0,13.6,1.6,19.4,4.8c5.8,3.2,10.3,7.7,13.6,13.3
				c3.3,5.7,4.9,12,4.9,19c0,7-1.6,13.3-4.9,19c-3.3,5.7-7.8,10.1-13.6,13.3c-5.8,3.2-12.3,4.8-19.4,4.8
				C525.9,335,519.4,333.4,513.7,330.2z M550.5,327.4c5.2-2.9,9.4-7,12.4-12.2c3-5.2,4.5-10.9,4.5-17.3c0-6.4-1.5-12.1-4.5-17.3
				c-3-5.2-7.1-9.2-12.4-12.2c-5.2-2.9-11.1-4.4-17.5-4.4c-6.4,0-12.2,1.5-17.5,4.4c-5.2,2.9-9.3,7-12.3,12.2
				c-3,5.2-4.5,10.9-4.5,17.3c0,6.4,1.5,12.1,4.5,17.3c3,5.2,7.1,9.2,12.3,12.2c5.2,2.9,11,4.4,17.5,4.4
				C539.4,331.8,545.3,330.3,550.5,327.4z"/>
			<path fill="#FFFFFF" d="M600.8,261.2h3.6v70.1h43v3.2h-46.5V261.2z"/>
			<path fill="#FFFFFF" d="M721.9,331.3v3.2h-49.6v-73.4h48.1v3.2h-44.5v31.2h39.8v3.2h-39.8v32.4H721.9z"/>
		</g>
	</g>
</g>
</svg>
